# xmcd
#
# Track frame offsets:
#	150
#	20587
#	37610
#	55695
#	69485
#	95067
#	106492
#	122722
#	146440
#	164775
#	186465
#	206640
#	221982
#
# Disc length: 3210 seconds
#
# Revision: 1
# Processed by: cddbd v1.4PL0 Copyright (c) Steve Scherf et al.
# Submitted via: audiograbber 1.81.02
#
DISCID=c60c880d
DTITLE=Mississippi Heat - Handyman
DYEAR=1999
DGENRE=Blues
TTITLE0=One More Chance
TTITLE1=Excuse Me
TTITLE2=Handyman
TTITLE3=These Men Look Good To Me
TTITLE4=Farewell To S P Leary
TTITLE5=Cornell Street Boogie
TTITLE6=Ghost Daddy
TTITLE7=Dog In My Back Yard
TTITLE8=Don't Cross Me
TTITLE9=It Hurts To Be Lonesome 
TTITLE10=Payday
TTITLE11=Stay With Me
TTITLE12=Johnny Boy
EXTD=
EXTT0=
EXTT1=
EXTT2=
EXTT3=
EXTT4=
EXTT5=
EXTT6=
EXTT7=
EXTT8=
EXTT9=
EXTT10=
EXTT11=
EXTT12=
PLAYORDER=
